<svg width="512" height="512" viewBox="0 0 512 512" fill="none" xmlns="http://www.w3.org/2000/svg">
<path d="M162.245 457.538L105.596 503.49L127.123 450.73L122.024 447.894L93.6995 512L92 435.413C111.491 411.968 121.559 394.36 136.753 348.614C134.785 319.828 134.737 303.682 138.452 274.863C141.932 252.619 147.688 237.215 166.211 203.382C186.529 167.943 204.528 146.779 244.387 107.506C278.321 71.9116 302.016 54.2768 351.454 26.3801C371.931 16.1161 383.322 10.5477 402.438 3.1203C416.113 -2.67816 420.037 -0.802808 420 12.1973C420.014 26.7439 419.383 35.0415 416.601 50.2073C406.034 93.7366 399.925 113.791 388.276 131.9L328.228 161.401L380.345 155.16C369.433 179.121 361.113 193.149 340.124 219.834L259.116 255.007L317.464 252.171C273.844 302.094 227.022 340.559 184.905 357.691C168.983 391.582 163.933 413.374 162.245 457.538Z" fill="url(#paint0_linear_2001_6)"/>
<path d="M156.789 363L145 359.598C165.067 313.721 176.748 289.187 198.89 249.039C216.888 220.558 227.33 204.491 247.728 175.332C268.852 147.877 280.944 132.484 305.548 105.028C328.325 82.7197 340.938 70.4554 359.662 54.3957C330.997 87.9773 317.342 104.238 306.671 118.635C268.931 166.234 249.194 192.848 220.783 239.967C194.402 283.847 180.028 309.701 156.789 363Z" fill="url(#paint1_linear_2001_6)"/>
<defs>
<linearGradient id="paint0_linear_2001_6" x1="102.763" y1="494.981" x2="344.085" y2="2.26101" gradientUnits="userSpaceOnUse">
<stop stop-color="#AE6E26"/>
<stop offset="0.317308" stop-color="#C78E22"/>
<stop offset="1" stop-color="#E0B563"/>
</linearGradient>
<linearGradient id="paint1_linear_2001_6" x1="353.825" y1="59.1028" x2="147.856" y2="355.984" gradientUnits="userSpaceOnUse">
<stop stop-color="#9B6525"/>
<stop offset="1" stop-color="#35220D"/>
</linearGradient>
</defs>
</svg>
