<svg width="328" height="512" viewBox="0 0 328 512" fill="none" xmlns="http://www.w3.org/2000/svg">
<g clip-path="url(#clip0_1_31)">
<path d="M70.2452 457.538L13.5958 503.49L35.1226 450.73L30.0242 447.894L1.69948 512L0 435.413C19.4907 411.968 29.559 394.36 44.753 348.614C42.7845 319.828 42.7372 303.682 46.4525 274.863C49.9316 252.619 55.6882 237.215 74.2106 203.382C94.5294 167.943 112.528 146.779 152.387 107.506C186.321 71.9116 210.016 54.2768 259.454 26.3801C279.931 16.1161 291.322 10.5477 310.438 3.1203C324.113 -2.67816 328.037 -0.802808 328 12.1973C328.014 26.7439 327.383 35.0415 324.601 50.2073C314.034 93.7366 307.925 113.791 296.276 131.9L236.228 161.401L288.345 155.16C277.433 179.121 269.113 193.149 248.124 219.834L167.116 255.007L225.464 252.171C181.844 302.094 135.022 340.559 92.9049 357.691C76.983 391.582 71.9328 413.374 70.2452 457.538Z" fill="url(#paint0_linear_1_31)"/>
<path d="M64.7885 363L53 359.598C73.0669 313.721 84.7484 289.187 106.89 249.039C124.888 220.558 135.33 204.491 155.728 175.332C176.852 147.877 188.944 132.484 213.548 105.028C236.325 82.7197 248.938 70.4554 267.662 54.3957C238.997 87.9773 225.342 104.238 214.671 118.635C176.931 166.234 157.194 192.848 128.783 239.967C102.402 283.847 88.0281 309.701 64.7885 363Z" fill="url(#paint1_linear_1_31)"/>
</g>
<defs>
<linearGradient id="paint0_linear_1_31" x1="10.7634" y1="494.981" x2="252.085" y2="2.26101" gradientUnits="userSpaceOnUse">
<stop stop-color="#AE6E26"/>
<stop offset="0.317308" stop-color="#C78E22"/>
<stop offset="1" stop-color="#E0B563"/>
</linearGradient>
<linearGradient id="paint1_linear_1_31" x1="261.825" y1="59.1028" x2="55.8556" y2="355.984" gradientUnits="userSpaceOnUse">
<stop stop-color="#9B6525"/>
<stop offset="1" stop-color="#35220D"/>
</linearGradient>
<clipPath id="clip0_1_31">
<rect width="328" height="512" fill="white"/>
</clipPath>
</defs>
</svg>
