<svg width="328" height="512" viewBox="0 0 328 512" fill="none" xmlns="http://www.w3.org/2000/svg">
<g clip-path="url(#clip0_2001_36)">
<path d="M310.438 3.12012C324.113 -2.67828 328.038 -0.802773 328 12.1973C328.015 26.7438 327.383 35.0414 324.601 50.207C314.034 93.7363 307.925 113.791 296.276 131.9L236.228 161.4L288.345 155.16C277.432 179.121 269.113 193.15 248.124 219.834L167.115 255.007L225.465 252.171C181.845 302.094 135.022 340.558 92.9053 357.69C76.9834 391.582 71.9327 413.374 70.2451 457.538L13.5957 503.49L35.123 450.73L30.0244 447.894L1.69922 512L0 435.413C19.4906 411.968 29.559 394.36 44.7529 348.614C42.7845 319.828 42.7369 303.683 46.4521 274.863C49.9312 252.619 55.6885 237.215 74.2109 203.382C94.5297 167.944 112.528 146.779 152.387 107.506C186.321 71.9116 210.016 54.2765 259.454 26.3799C279.931 16.1159 291.323 10.5475 310.438 3.12012ZM267.662 54.3955C248.938 70.4551 236.325 82.7195 213.548 105.027C188.944 132.483 176.852 147.877 155.729 175.332C135.331 204.491 124.888 220.558 106.891 249.038C84.7487 289.186 73.0669 313.721 53 359.599L64.7881 363C88.0277 309.701 102.401 283.847 128.783 239.967C157.194 192.847 176.931 166.234 214.671 118.635C225.342 104.238 238.997 87.977 267.662 54.3955Z" fill="black"/>
</g>
<defs>
<clipPath id="clip0_2001_36">
<rect width="328" height="512" fill="white"/>
</clipPath>
</defs>
</svg>
