<svg width="1887" height="512" viewBox="0 0 1887 512" fill="none" xmlns="http://www.w3.org/2000/svg">
<g clip-path="url(#clip0_2002_47)">
<path d="M355 357.5H374.5C379.167 389.167 391.833 414.167 412.5 432.5C433.167 450.5 458.667 459.5 489 459.5C501.333 459.5 512.667 458 523 455C533.333 452 542.167 447.833 549.5 442.5C556.833 436.833 562.5 430.333 566.5 423C570.5 415.333 572.5 406.833 572.5 397.5C572.5 389.5 571.167 382.667 568.5 377C566.167 371 561.5 365.333 554.5 360C547.5 354.333 537.833 348.667 525.5 343C513.5 337.333 497.833 330.833 478.5 323.5C439.5 308.5 410.667 291.167 392 271.5C373.333 251.5 364 228 364 201C364 185.333 367 171 373 158C379 145 387.333 133.833 398 124.5C409 115.167 422 108 437 103C452.333 97.6666 469.167 95 487.5 95C504.5 95 520.5 97.6666 535.5 103C550.5 108.333 565.333 116.333 580 127L589 102H601L606.5 210H587C579 182.667 566.5 161.833 549.5 147.5C532.5 132.833 512.833 125.5 490.5 125.5C469.833 125.5 453 130.667 440 141C427.333 151 421 164 421 180C421 187 422.167 193.333 424.5 199C426.833 204.333 431.167 209.5 437.5 214.5C443.833 219.5 452.5 224.667 463.5 230C474.5 235 488.667 240.667 506 247C529.333 256 549.167 265.167 565.5 274.5C582.167 283.5 595.667 293.333 606 304C616.667 314.333 624.5 325.333 629.5 337C634.5 348.667 637 361.5 637 375.5C637 392.5 633.333 408 626 422C618.667 436 608.333 448 595 458C582 468 566.333 475.833 548 481.5C530 487.167 510 490 488 490C468 490 450 487.333 434 482C418 476.333 401.5 467.333 384.5 455L374.5 485H362.5L355 357.5ZM838.543 465C849.21 465 856.71 464.667 861.043 464C865.376 463 867.543 461.167 867.543 458.5C867.543 456.5 865.21 451.667 860.543 444C856.21 436 850.543 426.833 843.543 416.5L805.543 359.5L780.543 383.5V403C780.543 416 781.043 426.5 782.043 434.5C783.043 442.5 784.71 448.833 787.043 453.5C789.71 457.833 793.21 460.833 797.543 462.5C802.21 464.167 808.043 465 815.043 465V485H667.543V465C676.876 464.667 684.376 463.667 690.043 462C695.71 460.333 700.21 457.5 703.543 453.5C706.876 449.167 709.043 443.333 710.043 436C711.376 428.333 712.043 418.5 712.043 406.5V194.5C712.043 174.167 711.71 158.167 711.043 146.5C710.376 134.833 708.543 126.167 705.543 120.5C702.876 114.5 698.543 110.833 692.543 109.5C686.876 108.167 679.043 107.5 669.043 107.5V89L780.543 70V348L828.543 302.5C845.876 286.167 858.21 274 865.543 266C872.876 257.667 876.543 251.667 876.543 248C876.543 245 873.376 243 867.043 242C861.043 240.667 849.71 240 833.043 240V220H969.543V240C956.876 240 945.71 242.167 936.043 246.5C926.376 250.833 915.876 258.333 904.543 269L856.043 314.5L942.543 437C950.21 447.667 957.71 455 965.043 459C972.376 463 982.043 465 994.043 465V485H838.543V465ZM1115.07 403C1115.07 416.333 1115.57 427 1116.57 435C1117.57 443 1119.57 449.167 1122.57 453.5C1125.57 457.833 1129.91 460.833 1135.57 462.5C1141.24 463.833 1148.91 464.667 1158.57 465V485H1001.07V465C1010.41 464.667 1017.91 463.667 1023.57 462C1029.57 460 1034.07 457 1037.07 453C1040.41 448.667 1042.57 442.833 1043.57 435.5C1044.91 427.833 1045.57 418.167 1045.57 406.5V200C1045.57 180.667 1045.24 164.833 1044.57 152.5C1043.91 139.833 1043.07 131.167 1042.07 126.5C1040.41 118.167 1036.57 112.667 1030.57 110C1024.91 107.333 1014.41 106 999.074 106V89L1115.07 70V403ZM1341.31 342.5C1313.31 355.167 1292.14 367 1277.81 378C1263.81 388.667 1256.81 399.833 1256.81 411.5C1256.81 421.167 1259.48 428.833 1264.81 434.5C1270.14 440.167 1276.81 443 1284.81 443C1292.81 443 1300.31 441.667 1307.31 439C1314.31 436 1320.31 432.167 1325.31 427.5C1330.31 422.833 1334.14 417.333 1336.81 411C1339.81 404.333 1341.31 397.333 1341.31 390V342.5ZM1341.31 316V295C1341.31 275.667 1337.81 261.667 1330.81 253C1324.14 244 1313.64 239.5 1299.31 239.5C1289.64 239.5 1282.31 242.167 1277.31 247.5C1272.31 252.5 1267.64 261 1263.31 273C1260.31 281.333 1255.98 287.833 1250.31 292.5C1244.98 297.167 1237.48 299.5 1227.81 299.5C1218.48 299.5 1211.31 296.667 1206.31 291C1201.31 285.333 1198.81 277.333 1198.81 267C1198.81 251 1207.48 238.333 1224.81 229C1242.48 219.667 1268.98 215 1304.31 215C1341.64 215 1368.31 221.833 1384.31 235.5C1400.31 248.833 1408.31 271.333 1408.31 303V412.5C1408.31 440.833 1413.98 455 1425.31 455C1431.64 455 1437.48 452.833 1442.81 448.5L1450.31 463C1445.64 471.333 1438.31 478 1428.31 483C1418.64 487.667 1407.64 490 1395.31 490C1379.98 490 1368.31 485.333 1360.31 476C1352.31 466.667 1348.31 453.5 1348.31 436.5H1345.81C1336.14 453.833 1323.64 467 1308.31 476C1292.98 485 1275.48 489.5 1255.81 489.5C1234.81 489.5 1217.98 483.667 1205.31 472C1192.64 460 1186.31 444.5 1186.31 425.5C1186.31 410.833 1192.81 397.167 1205.81 384.5C1218.81 371.5 1240.48 358.833 1270.81 346.5L1341.31 316ZM1584.92 403C1584.92 416.333 1585.42 427 1586.42 435C1587.42 443 1589.42 449.167 1592.42 453.5C1595.42 457.833 1599.75 460.833 1605.42 462.5C1611.08 463.833 1618.75 464.667 1628.42 465V485H1470.92V465C1480.25 464.667 1487.75 463.667 1493.42 462C1499.42 460 1503.92 457 1506.92 453C1510.25 448.667 1512.42 442.833 1513.42 435.5C1514.75 427.833 1515.42 418.167 1515.42 406.5V345C1515.42 325.667 1515.08 309.833 1514.42 297.5C1513.75 284.833 1512.92 276.167 1511.92 271.5C1510.25 263.167 1506.42 257.667 1500.42 255C1494.75 252.333 1484.25 251 1468.92 251V234L1584.92 215V403ZM1511.42 109C1511.42 98 1515.08 88.8333 1522.42 81.5C1530.08 73.8333 1539.25 70 1549.92 70C1560.92 70 1570.08 73.8333 1577.42 81.5C1585.08 88.8333 1588.92 98 1588.92 109C1588.92 119.667 1585.08 128.833 1577.42 136.5C1570.08 143.833 1560.92 147.5 1549.92 147.5C1539.25 147.5 1530.08 143.833 1522.42 136.5C1515.08 128.833 1511.42 119.667 1511.42 109ZM1766.08 407.5C1766.08 420.5 1766.58 430.833 1767.58 438.5C1768.92 445.833 1771.42 451.5 1775.08 455.5C1778.75 459.5 1784.08 462.167 1791.08 463.5C1798.08 464.5 1807.42 465 1819.08 465V485H1652.08V465C1662.08 464.333 1670.08 463.333 1676.08 462C1682.08 460.667 1686.58 458 1689.58 454C1692.58 450 1694.42 444.333 1695.08 437C1696.08 429.333 1696.58 419.167 1696.58 406.5V345.5C1696.58 324.833 1696.08 308.333 1695.08 296C1694.08 283.667 1691.92 274.167 1688.58 267.5C1685.25 260.833 1680.42 256.5 1674.08 254.5C1668.08 252.167 1660.08 251 1650.08 251V233.5L1750.08 215L1758.08 272.5H1760.08C1769.08 254.833 1780.92 240.833 1795.58 230.5C1810.25 220.167 1825.75 215 1842.08 215C1854.75 215 1865.08 218.167 1873.08 224.5C1881.08 230.833 1885.08 238.833 1885.08 248.5C1885.08 259.167 1881.92 268.167 1875.58 275.5C1869.58 282.833 1861.25 286.5 1850.58 286.5C1845.58 286.5 1841.08 285.5 1837.08 283.5C1833.08 281.5 1829.42 279.333 1826.08 277C1823.08 274.333 1819.92 272 1816.58 270C1813.58 267.667 1810.42 266.5 1807.08 266.5C1800.75 266.5 1794.75 270.667 1789.08 279C1783.42 287.333 1778.75 298.5 1775.08 312.5C1772.42 322.5 1770.25 333.833 1768.58 346.5C1766.92 358.833 1766.08 371.167 1766.08 383.5V407.5Z" fill="black"/>
<path d="M310.438 3.12012C324.113 -2.67828 328.038 -0.802773 328 12.1973C328.015 26.7438 327.383 35.0414 324.601 50.207C314.034 93.7363 307.925 113.791 296.276 131.9L236.228 161.4L288.345 155.16C277.432 179.121 269.113 193.15 248.124 219.834L167.115 255.007L225.465 252.171C181.845 302.094 135.022 340.558 92.9053 357.69C76.9834 391.582 71.9327 413.374 70.2451 457.538L13.5957 503.49L35.123 450.73L30.0244 447.894L1.69922 512L0 435.413C19.4906 411.968 29.559 394.36 44.7529 348.614C42.7845 319.828 42.7369 303.683 46.4521 274.863C49.9312 252.619 55.6885 237.215 74.2109 203.382C94.5297 167.944 112.528 146.779 152.387 107.506C186.321 71.9116 210.016 54.2765 259.454 26.3799C279.931 16.1159 291.323 10.5475 310.438 3.12012ZM267.662 54.3955C248.938 70.4551 236.325 82.7195 213.548 105.027C188.944 132.483 176.852 147.877 155.729 175.332C135.331 204.491 124.888 220.558 106.891 249.038C84.7487 289.186 73.0669 313.721 53 359.599L64.7881 363C88.0277 309.701 102.401 283.847 128.783 239.967C157.194 192.847 176.931 166.234 214.671 118.635C225.342 104.238 238.997 87.977 267.662 54.3955Z" fill="black"/>
</g>
<defs>
<clipPath id="clip0_2002_47">
<rect width="1887" height="512" fill="white"/>
</clipPath>
</defs>
</svg>
